<?xml version="1.0" encoding="UTF-8"?>
<svg xmlns="http://www.w3.org/2000/svg" viewBox="0 0 1080 1080">
  <!-- Fondo rojo oscuro -->
  <rect width="1080" height="1080" fill="#150508"/>
  <!-- Logo DAWLA centrado y escalado (original: 1920x1080, contenido aprox. x:200-1780, y:195-875) -->
  <g transform="translate(540,540) scale(0.62) translate(-990,-540)">
    <path fill="#b09900" d="M1432.29,560.97l-78.2,55.61c-1.57.43-2.99.54-4.21.21-24.03-6.6-35.75-42.36-37.43-65.81-5.46-75.89,6.59-162.97.05-237.94-2.06-23.6-18.88-45.12-39.76-53.18l-54.42,39.9c20.88,9.81,34.44,27.71,38.53,51.51,4.76,78.53-5.69,165.53.22,243.16,2.83,37.16,21.23,60.32,55.95,69.53l136.02-100.52v-113.41l-16.76,12.14v98.81Z"/>
    <path fill="#b09900" d="M695.06,365.2c-11.34-9.1-22.78-12.85-29.54-14.5l-133.88,98.72-.27,270.19c0,3.57.25,7.15,1.06,10.63,4.61,19.96,21.12,40.49,40.13,45.15l14.08-10.63c-8.02-3.71-23.22-12.49-31.57-31.08-1.48-3.3-2.59-6.55-3.41-9.65-1.11-4.21-1.58-8.55-1.58-12.91v-85.24c12.52-9.21,25.05-18.41,37.57-27.62l78.47-56.17v211.16l55.38,23.85v-362.37c-.33-5.54-1.52-14.2-5.86-23.76-6.49-14.31-16.26-22.33-20.57-25.78ZM666.25,522.78l-79.53,59.05h0c-12.22,8.69-24.44,17.37-36.66,26.05v-156.31l36.66-28.32,37.83-25.97c50.59,17.29,40.9,78.5,41.7,125.5Z"/>
    <path fill="#b09900" d="M422.65,416.46c-2.72-3.07-5.71-5.83-8.94-8.32-.06-.05-.14-.12-.2-.16-11.34-9.1-22.78-12.85-29.54-14.5h0l-119.96,88.46c-6.81-16.72-21.08-32.05-37.18-36l-14.09,10.63c8,3.69,23.21,12.44,31.59,31.07,2.8,6.22,4.25,12.26,4.99,17.48v69.3l.53,154.85-.03,30.43c0,8.59,1.5,17.19,5.07,25.01,6.03,13.19,16.63,25.16,28.92,30.88,0,0,0,.01,0,.02,8.88,4.1,17.76,8.2,26.63,12.3l-55.12,36.93,9.81,12.82,65.49-44.39,53.94-37.32v.08l9.11-6.38,24.65-17.05-.08-.16,21.71-15.21v-9.38s0,0,0,0v-290.34c-.33-5.54-1.52-14.2-5.86-23.76-3.34-7.37-7.54-13.04-11.43-17.31ZM384.82,542.86c-.12,7.76-.25,15.41-.12,22.7-.05,6.44-.09,12.88-.14,19.33v193.38l-57.12,38.27c-6.73-2.45-13.9-5.43-21.39-9.16-4.97-2.47-9.59-5.02-13.85-7.57-6.71-5.11-13.84-12.57-18.68-23.34-.03-.06-.05-.12-.08-.19-3.43-7.7-4.91-16.12-4.91-24.54v-257.4l36.66-28.33,37.83-25.97c.88.3,1.7.64,2.54.97,1.47.57,2.88,1.17,4.25,1.82l.03.02c35.85,17.02,35.59,60.14,35,99.99Z"/>
    <path fill="#b09900" d="M1210.98,641.29v-.02c-7.72,5.94-15.27,10.89-19.89,9.62-17.69-4.86-28.69-25.52-33.94-45.44-1.88-7.15-2.65-14.55-2.65-21.95v-129.04c.74-20.71,1.32-41.3,1.17-61.42,0,0,.01.01.02.02-.02-7.89-.04-15.77-.06-23.66.13-7.41-.27-15.34-1.39-23.67v-.15c-.02-.23-.07-.46-.1-.69,0-.02,0-.03,0-.05,0-.05-.01-.09-.02-.14-.14-1.21-.32-2.42-.56-3.63-.02-.1-.03-.2-.05-.3,0,0-.01.02-.02.02-3.74-18.68-18.14-38.18-35.48-45.06-1.34-.65-2.7-1.24-4.07-1.77l-.39.29c-.17-.04-.33-.11-.5-.15l-14.09,10.63c.06.03.12.06.18.09l-39.61,29.04c17.25,8.1,29.51,21.73,35.55,39.65,1.99,5.88,3.02,12.05,3.33,18.25,3.85,76.84-5.88,161.23-.13,236.77.03.4.38,4.04.92,8.06.14,1,.36,2.61.8,4.69.27,1.28.54,2.35.75,3.13-.63.46-38.2,27.9-38.83,28.36-13.07,9.5-26.15,19-38.83,28.36-3.98-.45-18.23-2.57-28.51-14.51-8.78-10.19-10.23-22.38-10.78-27.01-.36-3-.41-5.53-.38-7.35.08-89.92.16-179.84.25-269.75-2.19-21.75-20.16-46.32-41.19-51.48l-14.09,10.63c8,3.69,23.21,12.44,31.59,31.08,2.8,6.22,4.25,12.26,4.99,17.48v69.3l.49,156.1v49.61h.26c-14.52,10.03-30.44,20.55-44.96,30.58-.2.14-1.24.77-1.44.91-.83.05-1.21-.07-2.59-.45-24.03-6.6-35.75-42.36-37.43-65.81-5.46-75.89,6.59-162.97.05-237.94-2.06-23.6-18.88-45.12-39.76-53.17l-54.42,39.9c18.41,8.65,31.13,23.58,36.69,43.31,1.3,4.6,1.94,9.36,2.18,14.13,3.91,76.96-5.87,161.54-.11,237.23,2.83,37.16,21.23,60.32,55.95,69.53l9.52-7.04,81.25-57.93c8.65,21.42,27.98,33.89,49.74,40.17l84.19-61.76c8.41,20.86,24.85,34.6,49.67,41.18l65.37-48.31c-2.21-3.3-4.24-6.74-6.15-10.28l-2.48,1.83Z"/>
    <path fill="#b09900" d="M1701.4,242.6c-6.49-14.31-16.26-22.33-20.57-25.78-11.34-9.1-22.78-12.85-29.54-14.5l-133.88,98.72-.27,270.19c0,3.57.25,7.15,1.05,10.63,4.62,19.96,21.12,40.49,40.13,45.15l14.08-10.63c-8.02-3.71-23.22-12.49-31.57-31.08-1.48-3.3-2.59-6.55-3.41-9.65-1.11-4.21-1.58-8.55-1.58-12.91v-85.24c12.52-9.21,25.05-18.41,37.57-27.62l78.47-56.17v211.16l55.38,23.85v-362.37c-.33-5.54-1.52-14.2-5.86-23.76ZM1652.03,374.4l-79.53,59.05h0c-12.22,8.69-24.44,17.37-36.66,26.05v-156.31l36.66-28.32,37.83-25.97c50.59,17.29,40.9,78.5,41.7,125.5Z"/>
  </g>
</svg>
