<?xml version="1.0" encoding="UTF-8"?>
<svg xmlns="http://www.w3.org/2000/svg" viewBox="0 0 512 512">
  <rect width="512" height="512" rx="96" fill="#150508"/>
  <path fill="#aa9531" d="M352.7 244.7 311 274.4c-.8.2-1.6.3-2.2.1-12.8-3.5-19.1-22.6-20-35.1-2.9-40.5 3.5-86.9 0-126.9-1.1-12.6-10.1-24.1-21.2-28.4l-29 21.3c11.1 5.2 18.4 14.8 20.6 27.5 2.5 41.9-3 88.3.1 129.7 1.5 19.8 11.3 32.1 29.9 37l72.6-53.6v-60.5l-9 6.5v52.7Z"/>
  <path fill="#aa9531" d="M159.1 149.2c-6.1-4.9-12.2-6.9-15.8-7.7L71.9 194.2l-.1 144.1c0 1.9.1 3.8.6 5.7 2.5 10.6 11.3 21.6 21.4 24.1l7.5-5.7c-4.3-2-12.4-6.7-16.8-16.6-.8-1.8-1.4-3.5-1.8-5.1-.6-2.2-.8-4.6-.8-6.9v-45.5l20.1-14.7 41.9-30v112.7l29.6 12.7V175.6c-.2-3-.8-7.6-3.1-12.7-3.5-7.6-8.7-11.9-11-13.8Zm-15.4 84.1-42.4 31.5-19.6 13.9v-83.4l19.6-15.1 20.2-13.9c27 9.2 21.8 41.9 22.2 67Z"/>
  <path fill="#aa9531" d="M121.4 175.4c-1.5-1.6-3-3.1-4.8-4.4-6.1-4.9-12.2-6.9-15.8-7.7L36.7 210.5c-3.6-8.9-11.3-17.1-19.8-19.2l-7.5 5.7c4.3 2 12.4 6.6 16.9 16.6 1.5 3.3 2.3 6.5 2.7 9.3v119.4c0 4.6.8 9.2 2.7 13.3 3.2 7 8.9 13.4 15.4 16.5l14.2 6.6-29.4 19.7 5.2 6.8 35-23.7 28.8-19.9 4.9-3.4 13.2-9.1-.1-.1 11.6-8.1V186.8c-.2-3-.8-7.6-3.1-12.7-1.8-4-4-7-6.1-9.2Zm-20.2 67.5c-.1 4.1-.1 8.2-.1 12.1v103.1l-30.5 20.4c-3.6-1.3-7-2.8-11.4-4.9-2.6-1.3-5.1-2.7-7.4-4.1-3.6-2.7-7.4-6.7-10-12.5-1.8-4.1-2.6-8.6-2.6-13.1V206.6l19.6-15.1 20.2-13.9c.5.2.9.3 1.4.5 19.2 9.1 19 32.1 18.7 53.4Z"/>
  <path fill="#aa9531" d="M250.5 287.6c-7.8 5.4-16.3 11-24 16.4-.1.1-.7.4-.8.5-.4 0-.6 0-1.4-.2-12.8-3.5-19.1-22.6-20-35.1-2.9-40.5 3.5-86.9 0-126.9-1.1-12.6-10.1-24.1-21.2-28.4l-29 21.3c9.8 4.6 16.6 12.6 19.6 23.1.7 2.5 1 5 1.2 7.5 2.1 41.1-3.1 86.2-.1 126.6 1.5 19.8 11.3 32.1 29.9 37l5.1-3.8 43.4-30.9c4.6 11.4 14.9 17.9 26.6 21.4l45-33c4.5 11.1 13.3 18.5 26.5 22l34.9-25.8c-1.2-1.8-2.3-3.6-3.3-5.5l-1.3 1c-4.1 3.2-8.2 5.8-10.6 5.1-9.4-2.6-15.3-13.6-18.1-24.2-1-3.8-1.4-7.8-1.4-11.7v-68.9c.4-11 .7-22 .6-32.8 0-4.2 0-8.4-.1-12.6.1-4-.1-8.2-.7-12.6-2-10-9.7-20.4-18.9-24.1l-7.5 5.7c0 0 .1 0 .1.1l-21.1 15.5c9.2 4.3 15.8 11.6 19 21.2 1.1 3.1 1.6 6.4 1.8 9.7 2.1 41-3.1 86.1-.1 126.3 0 .2.2 2.2.5 4.3.1.5.2 1.4.4 2.5.1.7.3 1.3.4 1.7-.3.3-20.4 14.9-20.7 15.1l-20.7 15.1c-2.1-.2-9.7-1.4-15.2-7.7-4.7-5.4-5.5-12-5.8-14.4-.2-1.6-.2-3-.2-3.9l.1-144c-1.2-11.6-10.8-24.7-22-27.5l-7.5 5.7c4.3 2 12.4 6.6 16.9 16.6 1.5 3.3 2.3 6.5 2.7 9.3v37l.3 83.3v26.5h.1Z"/>
</svg>
